/* XPM */
static char * charizard_xpm[] = {
"48 32 4 1",
" 	c #181000",
".	c #F8F8F8",
"+	c #D02000",
"@	c #F88808",
"                                                ",
" .......... ++ @@++ @.............@............ ",
" .....@..... @+ @@++   +   .......@@........... ",
" .@....@..... @+ @@++ + +++ .......@@.....@.... ",
" .@@...@@..... @+ +++++++ @+ ......@@......@@.. ",
" .@@...@@...... ++++++++ . @+ ......@.......@.. ",
" ..@....@......+ ++@@@@++@  + .......@......@@. ",
" ..@.....@..... ++@@@@@@    + ...............@. ",
" .............. +@@@@@@@@@@@@+ @........@...... ",
" .............. +@@@@@@@@@@@@@+ +@......@.....@ ",
" +............. +@@@@@@@@@@@@@@@   @....@@....@ ",
" +.....@@....... +@@@@@@. ....@@@@ +...@+@...@  ",
"  ......+@...... +++@@@... ++ @... +...@+@..@ @ ",
" @+.....@@......+ @@@@.......@+ +. @...+@@.@+@@ ",
" . ......@...... ++@@@+@........  +...@+@@++@.. ",
" @@+......@.....  @@@..+  +@...@+@@..@@++ +@... ",
" +. ....@......@ +@@@.. @.+ @@.+.....@++ +...@. ",
" +@. ......@...+ +@@@..+...@ ++.....@@ ++@@..@. ",
" ++.@ ......... ++@@@.+@............@+ +++@@.@@ ",
" @+@.++.......@ +@@@..+@...........@  ++@++@.@@ ",
" @@+@. .......+ +@@@..+@..........+ ++++@@++... ",
" @@++.. ...... ++@@@..+@......@@@+ +@++++@++@.. ",
" @.@+@.+  +..@ ++@@@..+@..+       @.@++@+++@@.@ ",
" @.@@+@@.. @.+ ++@@@..@+.@ +@@@@+@@@+++@@++@@.@ ",
" @..@@++@.@ .  +@@@@..@+.  @.....+@@++@+@++@@.@ ",
" @...@@++@. +  +@@@@.@@ + @..@..@+@@@+@ @++++.@ ",
" @@...@@+@.@  ++@@@..@@  +@.@@@.@++@@+@ @@+++.@ ",
" @@....@++.. +++@@@..@+ +@.@@@@.@++++@+ .@+++@@ ",
" @@....@@+@.. +@@@@.@++ @.@@..@..++++.  @++++@@ ",
" @@@....@++@.@ @@@@@++ @@@.....@.@++++ +@.+.+@@ ",
" @@@....@@++.. @@@@++ +@@......@@@+++  +@.+@+@@ ",
"                                                "};
