/* XPM */
static char * east_xpm[] = {
"64 63 68 1",
" 	c #481C08",
".	c #240C00",
"+	c #54200C",
"@	c #301408",
"#	c #2C1414",
"$	c #381C18",
"%	c #3C1808",
"&	c #38140C",
"*	c #6C240C",
"=	c #080808",
"-	c #4C2014",
";	c #301000",
">	c #381804",
",	c #000000",
"'	c #0C1814",
")	c #60200C",
"!	c #543028",
"~	c #182C24",
"{	c #141418",
"]	c #101010",
"^	c #202020",
"/	c #383838",
"(	c #303030",
"_	c #505050",
":	c #484848",
"<	c #404040",
"[	c #282828",
"}	c #300000",
"|	c #50280C",
"1	c #001C00",
"2	c #603C2C",
"3	c #482420",
"4	c #501804",
"5	c #002800",
"6	c #10201C",
"7	c #5C3414",
"8	c #2C4034",
"9	c #043804",
"0	c #704834",
"a	c #480000",
"b	c #20342C",
"c	c #683828",
"d	c #7C5438",
"e	c #683C1C",
"f	c #744824",
"g	c #78240C",
"h	c #54281C",
"i	c #600000",
"j	c #442004",
"k	c #7C0000",
"l	c #6C2404",
"m	c #282830",
"n	c #1C1C24",
"o	c #34343C",
"p	c #582C24",
"q	c #8C603C",
"r	c #484854",
"s	c #202038",
"t	c #0C0C18",
"u	c #704034",
"v	c #845048",
"w	c #344C3C",
"x	c #282C4C",
"y	c #8C3804",
"z	c #242440",
"A	c #141828",
"B	c #080810",
"C	c #2C3054",
" .+@..@.@@@@@@@@@@@@@@@@@@@@##$$@%$%@@@@@@%$$$$$$@@@%@%%@@@#&+*&",
"&=@-.========================.@&%#.=========================;+*>",
" ,.-=,,,,,,',,,,,,,,,,,,,,,,,,&&-#==========================;+*>",
")=@%=,=,=,$!~,{]^{^/((_:</[({=&&-#=,}},}},}},}},}},}},}},}}=@+*>",
"|=>-==,=,1]23=,3{[{(//://({({=&>>@=,2!,2!,2!,2!,2!,2!,2!,2!,;4)>",
")=@-=,=,56'5=,7%3,=]{][,=,^,{.@>..=,4},4},4},4},4},4},4},4},;4)>",
"4=@-===~8~9==@00==%#$3!2022$|.&;..=,*a,*a,*a,*a,*a,*a,*a,*a,;))>",
"4=& .=6bb5==c$$===|#7#3[3]![2@&@.>=,2!,2!,2!,2!,2!,2!,2!,2!=;**&",
"4,& ]~db9==7dc====e$ee|ef2!]7.&@@*=,}},}},}},}},}},}},}},}},;*)>",
"),&&]bb0]=7dd=]=]=]=]=]=]^^^{...>*===================,======>))>",
"4= &]]~]3%cc=]=]=|!!!]6bbb=]{... g.,,,,,,,,,,,,,,,,,,,,,,,,,@))>",
"4=h .=]=%7c=.aa}=7d0c=6b~6{/!.&.  >>>&&&&@..>@@@>&&&>&&&>>>>.))>",
"4,)4=]]]77=].iia].!$$]3203=/!.&.+>.>>&&->@}>&&&@@>>+*g**)-%&.))&",
"4=))========.}}}]cd0c]1'61=$$.&. >,.,].....,],,,==,,.#..&-%&.*)&",
" .+).}j}====.kk}].!$$=1~~1=2(]&.%%  >;;>   >>>@}}}}.>;>>>>$>@*+&",
"4>++.>ll]b~=!!0!{cdc7]16~1]<:{&@%%+ &>>@@&***)))))))+  ##$$@@*+>",
"4 ++.;ll=20=. k}]c$d7{9~b1=!<{@>%$@...===..............====.@7+&",
"4 ++..%}]b~=. k}{c!d7]6~~1=(/{>4 >=,=,,=========]]==]=======>*+&",
"4> +=,2}]~~].>k}{73d|{~b~5]((]>++ ==][,]^=m[,no={/,[-=^-,^-.&*+ ",
"4>&+=,!}]~~]=>i}{7!d|{~8~']3(]&++>]=n^=n^=(m=m(=m(=[p=^)=^)@ *+ ",
" @ +=,|}]6~]3!!3{|!0|{~b~6=$$]&+)>]]{[=^n][m=[m][(=/0](0=(0@ ** ",
" . +=,%}{'6]}aa}^|cc|{!dq!{#[]&++&]]^m]^m]om][/][/]3)]^p]^p# )* ",
"4@&4=,$}=20].}}}{$$##^~b~~]##.&++&]{{o]^({oo][<{^r](*{^p]^p#+)* ",
" &&&=,>}=~~]}ia}^|7c|{6bb~{]#.&++&]{{({{({([{{<{{<{20{!0{!0#+)g ",
" +& =}>}=={{{{{{^^^^^^{{{{{{].&-|>]]={{{{{=]]{{{{{^]{]{{{{{.+)g ",
" +@..=..===.]]]]]]]]]]]]]]]===@-| ],,,,,,,,,,,,,,,,,,,,,,,,,&+g ",
" 4@>>    >>>     >>&&&&>>>>>>>>>>>>>>>>>>>>>             >>@& +&",
" +&>##@%%||%--|||-|||||!!!!7p!77!|!!!!!!!!!(!3!!!|!p7||||%$$& + ",
" )+&@@@-%-||||77||||||||||||||||||||||||||||---||7|||7|7!7%$&|* ",
" )+&###333$3$%%--3$$333-3-%%$-|3|||||---%%|||-!33!!!333$$$#$&+* ",
" )+@..@.@@@@@@@@@@@@@@@@@@@@#$$$@$$%@@@@@@%$$$$$$@@@%@%%@@@#&+* ",
" ) @,,,,,,,,,,,,,,,,,,,,,,,,,,,,,,,,,,,,,,,,,,,,,,,,,,,,,,,,>+)&",
" ) .,,,,,,,,,,,,,,,,,,,,,===========================...===,,&&+4",
" ) .=]=]=]{]^]===]==^{=]]===========================#$!.==],@&h4",
"4l .=={{={={=={]=]]=]]{=]=========,================.{^(/],],.@-4",
"4g ==={{^===]=]=]==]{]=]=@.%$==(^!<3]==&-%{{#%.].]..^.=:<[],.@-4",
"4g =={======={{]==={{{=]=@.!0]=<[^/[][{!f&<s/:].]..][=.:({=,.. 4",
"4*>=.@%}=>%}%%@>%}.%%}@>=#=!!]=:[]<m]/m!h-rsmt@%=%@@[==[([.,..-)",
"4l>=@@ + +)+)) +*+>|%>++>#=$!]=:[{((][m!! rs[<uv^!w[.=.#<(@,..-4",
"4)>=..@}]>%}%%{>%}=%@}.@=#=3$]=:(]/[][(2!+xs[(!v[!:(.@ .//.,.@&4",
" +>=.%l+>*y+y*>*y+>|4>4+;#=20]=:[^^(][/!2)xz[$u:($:/.&).3<>,.& 4",
" 4>,}%-}]||}||]||}]!@}@%=@=]{==<^{tA]^mh2%xx[_!:<$0:=&+&.<@,.&+4",
" )>=}$2&=00}00]00}=0!}!2=#={^==2^^{A]{m!2)<x^<::b$0w].+-.[!,@&+4",
"&* =}$!&=22}22]2!&=03@$!=#={^==2^^ts]{m32|/x^::_/]2_{.++.^$,@&+4",
"&* ,.$%&=2-&-2=2-}=0-}%!=#={$==/A{]sB]m&27(CA/[u<=!0[=&*+=$,@&& ",
">l ,}$!&]7|&||=||&=2|&@|=]=]!]=!A{{zB]m&27[zA/(!<.!:[=&))@@,@ & ",
" )>,.$!&]70&2-=-2&=72&$-=#=#0]=!A$^s]=m@!h[sA<_:/=!0[=.+)&@,@   ",
"4*>,}.!&=-2&2-=%|}=7|}@@=#=u!{=3<^{s]=^]!$]/s[m3/=$2/{=)++@,@&&&",
" *>,}.%&{|7&-%]|7}=%%}%;=@=2(#=#/^{(t=^]!$]^sss^$=[22^=g++.,@&&&",
"4l>,@@%@%%|%|%&%|->> +)+ @=#]].={==^]===#=={]]B====!/{=|%&@,.>&&",
"4*>,......@.@...@...@.@......@...@...@.....@.......@...@...,.&&&",
" 4&,%%%%&--------|------------------------%%-%%%%%-%%-@%@@%,.@.&",
" 4&.]]]]]]]]]=]]]]##]]]]=]]]]]]]]###]###]###########]]=====,=..&",
" 4&@.]##############################################{{]]{]]==...",
" 4&&@@@$%------|-----------$$$$$$$$--$$$$$$$$$$-------%$$#]..@..",
" 4&&@#%||72e22ee27e2p2p22227p277!|!!!!!2!!!!!3!!!7777!||%#]=.>..",
" 4;@##%|72cfffffeeeeeeeeeeeeeeeeeeeeeeeee222!!!!222222!|$#]=.>..",
">4;.##%|!77727|77!2!!!!7!!|-!7!!2222222!|72!!!!!!!!!!!|%#]]=. ..",
">4;.@@$-|||-%-%%%%-%%%%%%%-%3333%3!-%%%%%%%$$$$$$%$#%$$#@....@.@",
">)&.###############################################]]]]]]]#.=..@",
">);.----%%%%%%%%%%%%%%%%%%%$$$$$$$$$$$$$$$$$$$$$$$$$$$$$-%%==..@",
">4.=%%%%@%@@@@@@@@@@@@@@%%@@@@@@@@@@@@@@@@@@@@@@@@@@@@@@@%%., .@",
". .,......................}}}}}}............................,>.@"};
