/* XPM */
static char * gengar_xpm[] = {
"48 32 5 1",
" 	c #000000",
".	c #F8F8F8",
"+	c #506068",
"@	c #90A8B8",
"#	c #F85830",
"                                                ",
" ... +@+++     ...+@  +@++    @++ ...+@+++      ",
" ... @+@+++      +@@ +@@++   @++ ..++@+++       ",
" .... @+@+++    +@@@+@@@++  @+++ ++@@+++        ",
" .... @@+@+++  +@@@@@@@@+++@+++ +@@@+++         ",
" ..... @@+@+++@@@@@@@@@@++@@+++@@@@+++        . ",
" ..... @@@+@+@@@@@@@@@@@+@@@@@@@@@+++         . ",
" ...... @@@+@@@@@@@@@@@@@@@@@@@@@+++         .. ",
" ...... @@@@@@@@@@@@@@@@@@@@@@@@+++          .. ",
" .       @@@@@@@@@+@+@@@@@@@@@@+@++             ",
" .. +@@@@@@@@ @@@+@+@+@@@@@@@@+@+++             ",
" ... +@+@@@@@@ @+@+@+++@@@@@@@@+++              ",
" .... +@+@@@@@  @+@++++@@@@@@@+@++              ",
" ..... +@+@@@@ . +++++++@@@@@+@++             . ",
" ...    +@@@@@ .. +++++ @@@@+@+++               ",
" .... +@@@@@@@ ... +++  @@@@@+@+                ",
" ..... +@@@@@@ .###     @@@@+@++   ##         . ",
" ..... @@@@@+@+ ###     @@@+@++  ####         . ",
" .... @@@@@+@@@ ### #   @@@@   . ###            ",
" .... @@@@@+@ @+ ##### +@@@  ...###    +        ",
" ... @@@@@@@@  @+     ++@+@+           +        ",
" ... @@@+@@@@ . +++++++++@+@+        .          ",
" .. @@@++@@@@ ..  +++++++++++       ..          ",
" .. @@++ @@@@@ ..+                 ..           ",
" . @@+++ @@@@@ ..+..+..........+.. ..      +    ",
" . @@++  @@@@@@ .+..+..........+.. .      +++   ",
"  @@+++  +@@@@@ .+..+..........+.. .      ++++  ",
"  @+++    @@@@+@ +..+..........+..        +++++ ",
" @@+++    @@@+@++ ..+..........+..        ++@@+ ",
" @+++     +@+@+@++  +..........+           +@@@ ",
" ++++      +@+@++++                        ++@@ ",
"                                                "};
