/* XPM */
static char * jiggly_xpm[] = {
"48 32 6 1",
" 	c #181000",
".	c #F8F8F8",
"+	c #F88098",
"@	c #B03058",
"#	c #6810A8",
"$	c #000000",
"                                                ",
" ... .   +.+++++ +............+++++ +++   + ... ",
" ... .   @.++++ +............++++++ ++@   + ... ",
" ... .@  @..+++ ...........+++++++ +++@  @+ ... ",
" ... ..+@@..++ +..........+++++++ ++++@@+++ ... ",
" .. .......... ..........++++++  +++++++++++ .. ",
" .. .......... ..........++++  +++++++..++++ .. ",
" . ........... .........+++  + +++++.....++++ . ",
" . .......#$$$$+........++$++++$#$$$$#...++++ . ",
" . .....#$+...$+........+$+++++$#....+$#.++++ . ",
" . .... +..$$$#$+........$+++++$.$$$$..+ ++++ . ",
"  ....@+.#$..##$++........+++++$$..##$#.+@++++  ",
"  .... .##+..###$++.......++++##+..#####. ++++  ",
"  ...@@.$#+++####$+++....+++++$#+++####$.+@+++  ",
"  ... . #########+$#+++++++++$########+# . +++  ",
" @... . +#####+#+#$$$$+++++$$######+#+#+ . +++@ ",
" @... . #+#+#+#+#+$.$+$$$$#$+$+#+#+#+#+# . +++@ ",
" @... . +#+#+#+#+#$.$++++++$+$#+#+#+#+++ . +++@ ",
" @...@@.$++++.+.+$.+#++++++#+.$++++.+.+$.@@+++@ ",
" @.... .#+.+.+.++#.$..+++++.$.#+.+.+.++#. ++++@ ",
"  ....@+.#$....$#.+#........#+.#$....$#.+@++++  ",
"  ..... +..$$$$..+$..........$+..$$$$..+ +++++  ",
"  ......#$+....+$#...#$$$$#...#$+....#$#++++++  ",
" . .......#$$$$#.....$####$.....#$$$$#+++++++ . ",
" . .................. @@@@ ........++++++++++ . ",
" . ..................@@++@@........++++++++++ . ",
" .. ......+........... ++ .........+++++++++ .. ",
" .. ......++...........  .........+++++.++++ .. ",
" ... ...... ++....................++ +..+++ ... ",
" ... ......+ +++.................++ +..++++ ... ",
" .... ......+ ++++..............++ +...+++ .... ",
"                                                "};
