/* XPM */
static char * mewtwo_xpm[] = {
"48 32 5 1",
" 	c #000000",
".	c #F8F8F8",
"+	c #6838A0",
"@	c #E0B8E0",
"#	c #A02890",
"                                                ",
" ..........+.@@@++ ++++++++++ ..@@++ .......... ",
" ..........+..@@@+ +++@@@@@@+ .@@@++ .......... ",
" ...........+.@@@+++@@@@@@@@@@.@@@+ ........... ",
" ...........+.@@@@+@@@@@@@@@@@@@@@+ +++........ ",
" ..........++..@@@@@@@@@@@@@@@@@@++  @@++...... ",
" ..........+...@@@@@@@@@@@@@@@@@@+++ @@@@++.... ",
" ..........+....@@@@@@@@@@@@@@@@@+++ +@@.@@+... ",
" ..........+...@@@@@@@@@@@@@@@@@@@++ ++@@.@@ .. ",
" .........+...@@@@@@@@@@@@@@@@@@@@+++ ++@..@+ . ",
" .........+..@@@@@@@@@@@@@@@@@@@@@+++   @@.@++  ",
" .........+..@@@@@@@@@@@@@@@@@@@@++++ ..+@@.@+  ",
" ........+...@@@@@@@@@@@@@@@@@@@@+++++ ..+@.@++ ",
" ........+.... @@@@@@@@@@@@@@@@@+ ++++ ...+@@++ ",
" ........+.... ..@@@@@@@@@@@@@+++ ++++ ...+@@++ ",
" ........+... @..@@@@@@@@@@@@@@+++ +++ ....+@++ ",
" .......++...  ...@@@@@@@@@@@@@@+  +++ ....+@++ ",
" ......+@+... . ..@@@@@@@@@@@@@@ . +++ ....+@++ ",
" ......+@.+.. .. .@@ @@@@@@ @@@ .. ++   ...+@++ ",
" .....+@..+.. ..  .@ @@@@@@ @@  .. ++ ++ .+@@++ ",
" .....+@...+.. . # @@ @@@@ @@ # . ++ +++@ @@+++ ",
" .....+@...+.. . #  @ @@@@ @  # .     +@.@ +++  ",
" ......+@...+..  #   @@@@@    #   @@@  @@+ +++  ",
" ......+@....+...     @@@ @@@@   @.@ @+ +++ + . ",
" .....+@+@....+...@@@ @@+..@@@+  @@ @@@+ ++  .. ",
" .....+@@+@...@+...@@@@+@..++    @@ ..@@+ + ... ",
" .....+.@ @..@@@+..@@@@+@@+@@++  +@ ..@@+   ... ",
" .....+.@+ @.@@@+..+++  @+@.@++ + + @@@++ + ... ",
" ....+.@@+ @.@@@@++..@@   @@.@++ +   @@+ +++ .. ",
" ....+.@@++ @@@@@+@@@@@+  @@@@++   @@@++ +++ .. ",
" ...+.@@+++  @@@@+@+++ + + @@+++ +@@@++ @@+++ . ",
"                                                "};
