/* XPM */
static char * north_xpm[] = {
"64 63 57 1",
" 	c #301408",
".	c #481C08",
"+	c #240C00",
"@	c #000000",
"#	c #38140C",
"$	c #301000",
"%	c #381804",
"&	c #501804",
"*	c #080808",
"=	c #101010",
"-	c #6C240C",
";	c #60200C",
">	c #2C1414",
",	c #381C18",
"'	c #202020",
")	c #141418",
"!	c #3C1808",
"~	c #282828",
"{	c #54200C",
"]	c #303030",
"^	c #383838",
"/	c #404040",
"(	c #603C2C",
"_	c #543028",
":	c #141828",
"<	c #202038",
"[	c #704034",
"}	c #20342C",
"|	c #480000",
"1	c #482420",
"2	c #080810",
"3	c #2C4034",
"4	c #484848",
"5	c #704834",
"6	c #0C0C18",
"7	c #5C3414",
"8	c #242440",
"9	c #50280C",
"0	c #282C4C",
"a	c #300000",
"b	c #683828",
"c	c #4C2014",
"d	c #7C5438",
"e	c #744824",
"f	c #505050",
"g	c #683C1C",
"h	c #845048",
"i	c #805430",
"j	c #54281C",
"k	c #442004",
"l	c #582C24",
"m	c #78240C",
"n	c #182C24",
"o	c #8C603C",
"p	c #043804",
"q	c #8C6440",
"r	c #344C3C",
" .+@.............# $ $ #######%########......&&&..#...##$$#%@$++",
" .+@   #.%#.... ++++++++*++ +++++++++++++++$# $#...##.....##@$++",
"%.+*  ++$++++=+@@@@@@@*@+++++*@+@@@@@++@@@@@*****@@@@@@*@@+++ ++",
" .+*+$$+++++++++****++++$$$++++$$$$$$$$         $$ ++++++++++$++",
" .@@========$$ #######... $   #       ++$*++++++++++++ +++++*$++",
".-*+*************************************=*****************@*#%#",
"%;@+**********************************>*,')*** !***='))====@* %#",
".;@+***********@**********************)'~~~'*@ !=@*@')')*''@* %#",
"{-*+** ==***=*=,,**********************=~~]~'= !@==)~***=*)@* .#",
"{-@+ * >=**~'=,]~>*** >! ****   *  *  =) '~~'' !**==~~')~'*@* .#",
"{-@+>*,,>**^])*]/'*~'*(_!'^:=)*  *     '** '~' !*****')**'*@* %#",
";-@+>*>,=**^~'*^^'*~'*((%)<:*~*_('>(^~*=*  )~~ !****=*=''*=@* %#",
";-@+>*>,>**^~'*~/~*''*((%=^:=~=_[)',}'***  =''=!| *=*=*~'')@*%%%",
"{;@+>*,>>**^^~*~^'*'~*_(%*<<='=,[~*,^~=*    ''>!% #*=*='=*'@*#%%",
"{{@ >*>~)**^:',~^~*)'*1(.*<<')='[^*=^])*>+% ='' & #====='''@*%%%",
"{;@  **=***]:)=2<:*)'*1(! :<)~~>^/*>,^'* %%  '' ( #=)*=*)'=@*%% ",
"%{@%>*=)***_~))=<:*='*,(; ~:'])~^3=>,}~* %.  )' & %=***=*)=@*%% ",
".;*#>*=)***~:))=::2='= (; '<:]*=14)=,^~)*%.%=>>>& %*,_445_)@*%% ",
"{-*#>*=>***~:6==::2='2>(7>'<:~)*1/'*>_~'*>.%+*=>;  __([45(1@*%% ",
".-*#=**>,**,~6==:<2*'2 (7>)86~~*_/' >~]'* ..    &  >_([45(9@*#% ",
".-2 >*=(~**,'6>)::=*'2 (_>)06']~~^~*,_}'* .% >  _  !**_**~>@*.%+",
"{;2 >*__,=*,1])=::=*)=*((%=~:='*>^^*>,/~=*%.++> a  5*=(_*,!@*%%+",
"{;2> *_~>=*='~)=~~2*))*((%>~<'<6'(3*',/_)* ;++> +  1b1*(b5,@*%.+",
"%;=  *,_,> *^~)=]]'*))*__!>~')~2*^~*=,}~=* !   > + @>! (c>@@*%&+",
".-= +++  +++++==>>=****=++*====**==**===**++++++++++++   ++@*%.+",
".{= ........%%>>>!!!,!!,!!!,,!!!!!c!!!!!!!!!!!!!%%%%!!!!!!%> %.+",
"%{= {;{{{{..%!!!!!!!!!,111c1c!!,c999cccc!!!>>999c!>>!!!>>>,, %.+",
".#= ##{{##. +    ++  +++>  %%           % >>>%!!!!%%   >>>>++%&+",
"{+2 ###..%%%%%%%%%%%%%%%%%...%$$%.......&{{%%.{.{{..%   ###  .&+",
"{=*#>>>>>>,,>>%%........{{{.%...........##%#  +++    ###!###+..+",
".==#***********+++++++++  ++++++ %!!>>>>+>,>+>>+************+..+",
".**#=,=* =* * * *****)'*>)*=    *7db*](,*_51*_51*@*@*@*@*@** #{ ",
".*=#>]^>_'=~~,~~~*=*****=>(_,,__@+(1*,(1@,(1*,(1@*******@*** .&+",
".*=#+!4)>**')*~5,=*='= ,4,__,(_ *bde*5f_*5d(*5d(,******+||**##{+",
"{*+#+>/_,*)~'*_4~=!'6*>,_>(f'_7,*b1e*4/_*5^(*5^(,**=***+a|**#.{ ",
".*+#+ ^)=*='=*~4'= )=*>,])_/)__,=b(e=5f1=54_=54_,*=*=*=11_**%## ",
"{*=.*=^'=*='=*[f,!!'2* __=_/=_9_=7_g=/f,=((9=((9,======*;|=*%## ",
"{*+.*=^'==='=*^4) !'=* __=_/=_!_)75g)_f,)_59)_59>=)=)=)*&|)=%#{ ",
"{*+{+*_'==='==h(,!>)** (^>_~*,9_)9(g)1(,)1(9)1(9>))))))>{|)=.#{#",
"-*+{++~=**='=>h_,!>)* *_]=__*,_['9ig',4,'159'159>)))')=11_)=##{#",
";*+&++__ 9)'=,d^>!>6*')_~>1[*>,1),1,),1>),1>),1>>')')''+aa)+&#;#",
"{*+#+*>,>,***,[)=%=2***~=*>)*, ,>!9,)>,>)>,>>>c>>)))))=+a+= {{;#",
";*+& ++  +===>>>++==**===+ += %%   >>+++++++     ++++++++++ {j{ ",
";*..%....%%%.....%%####%%%%%%k..kk%,%%%%%%%%.............%%%% { ",
";+.#>> !!99!cc999c99999____7l_9999_________]_1___9_l79999!,>%#{ ",
"{+9    c!c99997799999999999999999999999999cc!!!cc9ccc9c919> #{- ",
"{={#>>>111,1,!!cc1,,111c1c!!,c999cccc!!!>>999c!>>!!!>>>,,,=>#{- ",
".+{#>   !! !   ,,,,,,!      !,,!!,,>                    + +  {-#",
".*+#******************************************************* ;;;!",
".@++*@'@@@@@@@@@@@@@@@@@@@@@@@@@@@@@@@@@@@@@@@@@@@@@@@@@@@@+;--#",
".*++*'~'*@*@*@*@*@*@*@*@*@*@*@*@*@*@*@*@*@*@*@*@*@*@*@*@*@*+&m-!",
".@++=~#(/*#(>*#(>************b7**b7************#(>*#(>*#(>**.m-.",
".@+ =~d5(*id!*bd!*=*=*=*=*n*=#(7=#(e=*=*=n3*n3=bd!*bd!*bd!**#--{",
".@+%*=i((=i1c=i1c=======*]5==7d7*7de====*5o*_5*7> *7> *7>!=*#;-{",
".@+$*=h(!]d(c=i(c=========ip==7(7=7(e====pn=pn=i(c=i(c=i(c=*.;-{",
".@+$*=hd1/hd1]e_#==)===)=='~p=ccc=c_g==)=p})p}=e_#=e_#=e_#==.;-;",
".*+$=~e5#=eq1~55#=)))=)))==]nn=7_c=75g)))nr)nr)e5#)e5#)e5#)=c;-;",
".*+$=/h(1/dd#)gd545ggeeiii#=]n=%cc)%cg)))n3)n}=!,+*!,+*!,+)=c;--",
".@+$=](d,~5q_]5d_/(51_11,d1==nn=c ,)c1,)'nn)nn'gi#'gi#'gi#'=c;--",
"%@+%='11,'11,'11,',####ccc>''}'  9c>#7c>'n}'n}'11,'11,'11,'=!;-;",
".@+$ ++ ++++++  +++++++++++====++  ++  +=====)>  ++  ++  +* c{-;",
".@+$%%....%%%.....%%####%%%%%%k..kk%,%%%%%%%%.............%%c{m;",
".*+$%>> !!99!cc999c99999____7l_9999_________]_1___9_l79999!,{{m;"};
