/* XPM */
static char * south_xpm[] = {
"64 63 66 1",
" 	c #481C08",
".	c #240C00",
"+	c #301408",
"@	c #54200C",
"#	c #38140C",
"$	c #2C1414",
"%	c #381804",
"&	c #301000",
"*	c #60200C",
"=	c #3C1808",
"-	c #6C240C",
";	c #080808",
">	c #4C2014",
",	c #000000",
"'	c #101010",
")	c #501804",
"!	c #383838",
"~	c #303030",
"{	c #282828",
"]	c #202020",
"^	c #141418",
"/	c #404040",
"(	c #54281C",
"_	c #78240C",
":	c #84280C",
"<	c #6C2404",
"[	c #2C4034",
"}	c #182C24",
"|	c #300000",
"1	c #50280C",
"2	c #5C3414",
"3	c #480000",
"4	c #543028",
"5	c #20342C",
"6	c #0C1814",
"7	c #10201C",
"8	c #8C3804",
"9	c #A84C04",
"0	c #704834",
"a	c #683828",
"b	c #805430",
"c	c #043804",
"d	c #484848",
"e	c #381C18",
"f	c #442004",
"g	c #603C2C",
"h	c #002800",
"i	c #001C00",
"j	c #486050",
"k	c #683C1C",
"l	c #744824",
"m	c #74402C",
"n	c #7C5438",
"o	c #344C3C",
"p	c #282830",
"q	c #1C1C24",
"r	c #34343C",
"s	c #940000",
"t	c #600000",
"u	c #582C24",
"v	c #482420",
"w	c #7C0000",
"x	c #987448",
"y	c #9C2808",
"z	c #484854",
"A	c #902808",
" .+@#$$$$$$$$++%%%++.%&@@@@ @@@*@@@@@@@## ##+...++#####=####&@-@",
" ;+>;;,,,,,,,,,,,,,,,.+%@@ +%..........;;;;;;;'''''''$$$$''.&@-)",
" ,.>;;,,,!~,{],,{,,~]].#@@@+%;,,,,,,,,,,,,,,,]]]^'''^]]^''''&@-)",
"*;+=;;;~;~;{;];,/,!{;,.%@* ++;,,;,,,;,,,;,,,;,]]{],,;~~~~,!{%@- ",
"(;%>;;,;~/~;,;]~,/,;,{.)*-@+.;,,,,,,,;,,,,,,,;,,,,]]]/,,,],^&)* ",
"*;+>;;;,/~/,;,~,;{;]{!$)*- +.;;,;,;,;,;,;,;,;,;,;,;]]!/~!!!,&)*)",
"@;+>;;;;{{;;;;/;;;;/;!$)-_ ..;,;;;;;;;,;;;;;;;,;;;;;;;]{;;~,&**)",
"@;# ;;;;!~;;;;;;;;;{{;.@_: ..;;;;,;;;,;;;,;;;,;;;,;;;,;;~];,&--@",
"@,# ;;;;;~;;;;;;;;;~{;.--_%..;;;;;;;;;;;;;;;;;;;;;;;;;;;~~~]&-* ",
"*,##;;';'{';';';';';~;.--<%.+;';';';';';';';';';';';';';!;']%** ",
"@; #;';';!;';';';';'/'+:-)%..;;';;;';';';;;';';';;;';';';{{]+**)",
"@;( ']~[}!}[[}';';';~;+:)*%+#;'|123|12||123|123|21|321||124,.** ",
"@,*).{~{}'}[5}6'''''[7+_--#.#;' <_8<<_<<898<898<98<898<<89_,.**#",
"@;**=0ab0'00007''';cd[e_*-#.#;.'%1|'f13.123.123.21.321..12g,.-*%",
" .@*=h^]c'c}}c7'''i}[g=-**#.+;'%%)<%*<<%89<%89<%98%<98%%89*!+-@%",
"@%@@%h}]c'c}}c7'^;c}jc+*-@%.+;'^%23^k23.l23.2m3.ll.32l..ll3{+-@ ",
"@ @@$h]{c^c}5c7^;}}[[6._<*+.+;;,#23,ga3,a23,aa3,nn,3aa,,na3]+2@#",
"@ @@$h{~c'c5[c7;'}5od'+_**+++;;,1a3,22|,a>|,a23,a0,32a,,023,+-@@",
"@% @$}~~c^}[oc7'}5[c6^+_)-+++;;,2=3,(>|,2@|,2@3,1a,3k2,,>>3,%-@*",
"@%#@^]o~h^}ooc77[5c6'^+_)-+#+;;,l>3,>23,2@|,2@|,22,32l,,>2|,%-@*",
" + @^}!~^^}j[}'}5oc;'^+_*-+#+;;,k>3,>23,k(|,> |,a1,|2k,,>2|,)--*",
" . @$}~]^'}d}}75[c6']^+-*_%#+;;,243,>03,2(|,2 |,4f,302,,1=|,#--*",
"@+#%$0444]400gg}}6;;;;.*--%#+;.,1>3,123,123,1*3,21,321,,%f|,%)-*",
" ###$}~{}^}[5}/0~6;;;;+_-*+#+.+)<<<)<8<)<8<)<8<)8<)<8)%&%%<,%2_*",
" @# '^~[}]}[[7[}6'''''+_-*+#+..|f>||f>||f>||f>||>f||f%||f>|,%*_*",
" @+++.^^^$^^^^^^';;... :*- > ...++&.++&&++&&++%%+%&&&&..&&.. *_*",
" )+%_@@@@@@@@@@@@@  )@)@** ****<********----__:::_-*---**))* *-@",
" @#%*@@@*-2*--_-@%%++###%|+%>##%%&++......+%)*@)*-_-**-_---*#*-*",
"%*@##@@##   %% %+........+++++++++....+++++++%%%%%%%++%%+++%#1-*",
"+*@###  %%%%%%&%.||||+%%%   %&&%       )@@@@@@@@@  >######++#@-*",
"+*@+$$$$$ee$$  @*******---@)@@@*@@@@@@@## ##+...++#####=#####@-*",
"+*@+,,,,,,,,,,,,,,,,,,,,,,,,,,,,,,,,,,,,,,,,,,,,,,..,,,,,,,,#@*@",
"% ).,;,,,;,,,;,,,;,,,;,,,;,,,;,,,;,,,;,,,;,,,;,,,; @,7},,;,,##@-",
"%  .;'{,'];p{,qr;^!,{>;]>,]>;,;,;5},}c;,;,;s3,%%|,<<;]{,;t;,##(-",
" @@.;q];q];~p;p~;p~;{u;]*;]*;;;;;!};}c;#v;;33 @<@;12;i];;w;,++>-",
" **;'^{;]q'{p;{p'{~;!0'~0;~0';  '/7;5c';xl'<<&-8<;>2'i];40',++>-",
" _@.']p']p'rp'{!'{!'v*']u']u''  'd7'[c''gl'y3;v0|'>#'h5''w',+. -",
" -).^^r']~^rr'{/^]z'~-^]u'{u^'kk^56'j}^'l4^A3;>#.'>e^^[''s^,+.>_",
" < .^^~^^~^~{^^/^^/^g0^40^40^;1#^{6^o}^^kg^<<;>>.^#>^]5^4n^,+.>-",
" * .]^p^q{]{{^q~]^r^e>]$>^$>];41]]6^[}]^kb]s3;>4+^12]]]^+*],++#-",
"%@@.]q{]q{]p]]qp]qp]$#]$v]$v]; >]]6][}]]]k]w3 *k*]>2]]{]+)],$# -",
"%)@.'''''''';;;;;;'';;;;;;;;;...;;;''';;'.....+++...'''';;;;+#@-",
"%*@+'''''''$$$$$$$$$$$$$$$$$$$$$$$$$$$$$$$$$$$$$$$$$$$$$$$$$+#@-",
"%@*#%=======>>>>>>>1111111111112211111111111111111111111111=##@-",
"%@* $v>>>>>>>>>>>>>>>>>>>>>>>>>>>>eeeeeeeeeeeeeeeeeeeeeeeee$+%#*",
"+  %'+++++++$$$$$$$$$$$$$$$$$$$$$$$$$$$$$$$$$$$$$$$$$$$$$$$$% #*",
"%  %+%vvvvvvvvvvvvvvvvvvvvvvvvvvvvvvvvvvvvvvvvvvvvvvvvvvvvv =% *",
" @  =v>>>>>>>1>11>>>1>>>>1>>>>>>>1>1122>1v1>>>>>>1112v1v>>>>%%#@",
"%@   >>11424222224241>11142222111>>>122v4vvvvv>>1vvv2v21111> %#@",
" @)  22kkkk222k2kakkkkk222222222222222222222222222222222k222 #+@",
" @)  (2kkakaaakaakkkkkkkkk222222222k22222222222222222222222(=#+@",
" @)%= 222222(22222222222222(2(22222(222((111122((((((12222(  ++@",
" @@ %=   v   ((       (           %%%%%%%%  %%%%%%%%  v   v% %+@",
" @ %%$$$$$$$$eeeeeeeeeeeeeeeeeeeeeeeeeeeeeeeeeeeeeeeeeeeee$$%%. ",
" @ %+$^$^$e$^e^^eeeee^e^ee>e^ee^^^^^^^^^eee^eee^eeeeeeeee$$$%+. ",
" @ .+=>vv111111111vv111v1111111111111111121111vv1111111vvv>=++. ",
" @ ++==>kkkkkkk2kkkkkkkkakkkkk2k12k((1(11k22kkkkkkkkk>>>(v>=++. ",
"+%.++$$%  eeeeeeeeeeeeeeeeeeeeeee>eeeeeeeeeee111v11vve==>>=%++.&",
"+%..++++% #######%%++++&+#######%########      )    ##  ## %++..",
"+%&,.++++# %#    +........;..+...............&#+&#   #+ ++% +...",
"+ .,..++..&....'.,,,,,,,;,.....;,.,,,,,..,,,,,;;;;;,,,,,,;,,,+..",
"+ .,...&&.........;;;;....&&&....&&&&&&&&+++++++++&&+.......,#..",
"& .,''''''''''&&+#######   +&+++#+++++++..&.............+...,+.."};
