/* XPM */
static char * west_xpm[] = {
"64 63 55 1",
" 	c #301408",
".	c #481C08",
"+	c #240C00",
"@	c #000000",
"#	c #38140C",
"$	c #301000",
"%	c #381804",
"&	c #501804",
"*	c #080808",
"=	c #101010",
"-	c #6C240C",
";	c #60200C",
">	c #2C1414",
",	c #381C18",
"'	c #202020",
")	c #141418",
"!	c #3C1808",
"~	c #282828",
"{	c #54200C",
"]	c #303030",
"^	c #383838",
"/	c #404040",
"(	c #603C2C",
"_	c #543028",
":	c #20342C",
"<	c #480000",
"[	c #141828",
"}	c #482420",
"|	c #080810",
"1	c #202038",
"2	c #484848",
"3	c #704834",
"4	c #0C0C18",
"5	c #5C3414",
"6	c #704034",
"7	c #50280C",
"8	c #300000",
"9	c #683828",
"0	c #4C2014",
"a	c #505050",
"b	c #7C5438",
"c	c #845048",
"d	c #54281C",
"e	c #442004",
"f	c #582C24",
"g	c #78240C",
"h	c #805430",
"i	c #182C24",
"j	c #744824",
"k	c #2C4034",
"l	c #8C603C",
"m	c #043804",
"n	c #683C1C",
"o	c #8C6440",
"p	c #344C3C",
" .+@.............# $ $ #######%########......&&&..#...##$$#%@$++",
" .+@   #.%#.... ++++++++*++ +++++++++++++++$# $#...##.....##@$++",
"%.+*  ++$++++=+@@@@@@@*@+++++*@+@@@@@++@@@@@*****@@@@@@*@@+++ ++",
" .+*+$$+++++++++****++++$$$++++$$$$$$$$         $$ ++++++++++$++",
" .@@========$$ #######... $   #       ++$*++++++++++++ +++++*$++",
".-*+*************************************=*****************@*#%#",
"%;@+**********************************>*,')*** !***='))====@* %#",
".;@+***********@**********************)'~~~'*@ !=@*@')')*''@* %#",
"{-*+** ==***=*=,,**********************=~~]~'= !@==)~***=*)@* .#",
"{-@+ * >=**~'=,]~>*** >! ***********  =) '~~'' !**==~~')~'*@* .#",
"{-@+>*,,>**^])*]/'*~'*(_!*********     '** '~' !*****')**'*@* %#",
";-@+>*>,=**^~'*^^'*~'*((%)********>(^~*=*  )~~ !****=*=''*=@* %#",
";-@+>*>,>**^~'*~/~*''*((%=*********,:'***  =''=!< *=*=*~'')@*%%%",
"{;@+>*,>>**^^~*~^'*'~*_(%**********,^~=*    ''>!% #*=*='=*'@*#%%",
"{{@ >*>~)**^[',~^~*)'*}(.**********=^])*>+% ='' & #====='''@*%%%",
"{;@  **=***][)=|1[*)'*}(! *********>,^'* %%  '' ( #=)*=*)'=@*%% ",
"%{@%>*=)***_~))=1[*='*,(; *********>,:~* %.  )' & %=***=*)=@*%% ",
".;*#>*=)***~[))=[[|='= (; *********=,^~)*%.%=>>>& %*,_223_)@*%% ",
"{-*#>*=>***~[4==[[|='|>(5>**********>_~'*>.%+*=>;  __(623(}@*%% ",
".-*#=**>,**,~4==[1|*'| (5>********* >~]'* ..    &  >_(623(7@*#% ",
".-| >*=(~**,'4>)[[=*'| (_>**********,_:'* .% >  _  !**_**~>@*.%+",
"{;| >*__,=*,}])=[[=*)=*((%=*********>,/~=*%.++> 8  3*=(_*,!@*%%+",
"{;|> *_~>=*='~)=~~|*))*((%>****4****',/_)* ;++> +  }9}*(93,@*%.+",
"%;=  *,_,> *^~)=]]'*))*__!>*********=,:~=* !   > + @>! (0>@@*%&+",
".-= +++  +++++==>>=****=++*====**==**===**++++++++++++   ++@*%.+",
".{= ........%%>>>!!!,!!,!!!+*******+!!!!!!!!!!!!%%%%!!!!!!%> %.+",
"%{= {;{{{{..%!!!!!!!!!,}}}0+*******+0000!!!>>7770!>>!!!>>>,, %.+",
".#= ##{{##. +    ++  +++>  +*******+    % >>>%!!!!%%   >>>>++%&+",
"{+| ###..%%%%%%%%%%%%%%%%%.+*******+....&{{%%.{.{{..%   ###  .&+",
"{=*#>>>>>>,,>>%%........{{{+*******+....##%#  +++    ###!###+..+",
".==#***********+++++++++  ++*******+>>>>+>,>+>>+************+..+",
".**#=,=* =* * * *****)'*>)*=*********](,*_3}*_3}*@*@*@*@*@** #{ ",
".*=#>]^>_'=~~,~~~*=*****=>******@****,(}@,(}*,(}@*******@*** .&+",
".*=#+!2)>**')*~3,=*='= ,2,***********3a_*3b(*3b(,******+<<**##{+",
"{*+#+>/_,*)~'*_2~=!'4*>,_>***********2/_*3^(*3^(,**=***+8<**#.{ ",
".*+#+ ^)=*='=*~2'= )=*>,])******=***=3a}=32_=32_,*=*=*=}}_**%## ",
"{*=.*=^'=*='=*6a,!!'|* __=******=***=/a,=((7=((7,======*;<=*%## ",
"{*+.*=^'==='=*^2) !'=* __=**********)_a,)_37)_37>=)=)=)*&<)=%#{ ",
"{*+{+*_'==='==c(,!>)** (^>**********)}(,)}(7)}(7>))))))>{<)=.#{#",
"-*+{++~=**='=>c_,!>)* *_]=**********',2,'}37'}37>)))')=}}_)=##{#",
";*+&++__ 7)'=,b^>!>4*')_~>**********),}>),}>),}>>')')''+88)+&#;#",
"{*+#+*>,>,***,6)=%=|***~=*>)********)>,>)>,>>>0>>)))))=+8+= {{;#",
";*+& ++  +===>>>++==**===+ +=*******>+++++++     ++++++++++ {d{ ",
";*..%....%%%.....%%####%%%%%%e..ee%,%%%%%%%%.............%%%% { ",
";+.#>> !!77!00777077777____5f_7777_________]_}___7_f57777!,>%#{ ",
"{+7    0!07777557777777777777777777777777700!!!007000707}7> #{- ",
"{={#>>>}}},},!!00},,}}}0}0!!,07770000!!!>>7770!>>!!!>>>,,,=>#{- ",
".+{#>   !! !   ,,,,,,!      !,,!!,,>                    + +  {-#",
".*+#******************************************************* ;;;!",
".@++*@'@@@@@@@@@@@@@@@@@@@@@@@@@@@@@@@@@@@@@@@@@@@@@@@@@@@@+;--#",
".*++*'~'*@*@*@*@*@*@*@*@*@*@*@*@*@*@*@*@*@*@*@*@*@*@*@*@*@*+&g-!",
".@++=~#(/*#(>*#(>************95**95************#(>*#(>*#(>**.g-.",
".@+ =~b3(*hb!*9b!*=*=*=*=*i*=#(5=#(j=*=*=ik*ik=9b!*9b!*9b!**#--{",
".@+%*=h((=h}0=h}0=======*]3==5b5*5bj====*3l*_3*5> *5> *5>!=*#;-{",
".@+$*=c(!]b(0=h(0=========hm==5(5=5(j====mi=mi=h(0=h(0=h(0=*.;-{",
".@+$*=cb}/cb}]j_#==)===)=='~m=000=0_n==)=m:)m:=j_#=j_#=j_#==.;-;",
".*+$=~j3#=jo}~33#=)))=)))==]ii=5_0=53n)))ip)ip)j3#)j3#)j3#)=0;-;",
".*+$=/c(}/bb#)nb323nnjjhhh#=]i=%00)%0n)))ik)i:=!,+*!,+*!,+)=0;--",
".@+$=](b,~3o_]3b_/(3}_}},b}==ii=0 ,)0},)'ii)ii'nh#'nh#'nh#'=0;--",
"%@+%='}},'}},'}},',####000>'':'  70>#50>'i:'i:'}},'}},'}},'=!;-;",
".@+$ ++ ++++++  +++++++++++====++  ++  +=====)>  ++  ++  +* 0{-;",
".@+$%%....%%%.....%%####%%%%%%e..ee%,%%%%%%%%.............%%0{g;",
".*+$%>> !!77!00777077777____5f_7777_________]_}___7_f57777!,{{g;"};
